<svg width="88" height="88" viewBox="0 0 88 88" fill="none" xmlns="http://www.w3.org/2000/svg">
<mask id="mask0_4010_40852" style="mask-type:alpha" maskUnits="userSpaceOnUse" x="0" y="0" width="88" height="88">
<circle cx="44" cy="44" r="44" fill="#F4F6F8"/>
</mask>
<g mask="url(#mask0_4010_40852)">
<circle cx="44.3997" cy="44.3997" r="44.3997" fill="#F4F6F8"/>
<path d="M34.5481 42.9971C34.5481 43.7518 35.1599 44.3636 35.9146 44.3636C36.6692 44.3636 37.281 43.7518 37.281 42.9971H34.5481ZM61.5378 54.1266C60.7831 54.1266 60.1713 54.7384 60.1713 55.493C60.1713 56.2477 60.7831 56.8595 61.5378 56.8595V54.1266ZM69.3468 34.9302V51.3936H72.0797V34.9302H69.3468ZM37.281 42.9971V34.9302H34.5481V42.9971H37.281ZM66.6138 54.1266H61.5378V56.8595H66.6138V54.1266ZM69.3468 51.3936C69.3468 52.903 68.1232 54.1266 66.6138 54.1266V56.8595C69.6325 56.8595 72.0797 54.4123 72.0797 51.3936H69.3468Z" fill="#173559"/>
<path d="M38.2842 40.8243C38.2842 39.3149 39.5078 38.0913 41.0172 38.0913H44.2509C45.7603 38.0913 46.9839 39.3149 46.9839 40.8243V46.8054C46.9839 47.36 46.3476 47.6736 45.9077 47.3358C44.2174 46.0377 42.2758 45.105 40.206 44.5969L38.8218 44.2571C38.5061 44.1796 38.2842 43.8966 38.2842 43.5715V40.8243Z" fill="#FDCF33"/>
<path d="M48.8843 35.0882C48.8843 34.6515 49.2384 34.2974 49.6752 34.2974C50.1119 34.2974 50.466 34.6515 50.466 35.0882V49.3241C50.466 49.7609 50.1119 50.115 49.6752 50.115C49.2384 50.115 48.8843 49.7609 48.8843 49.3241V35.0882Z" fill="#173559"/>
<path d="M44.1367 42.9984C44.1367 42.5616 44.4908 42.2075 44.9276 42.2075C45.3644 42.2075 45.7185 42.5616 45.7185 42.9984V44.5802C45.7185 45.0169 45.3644 45.371 44.9276 45.371C44.4908 45.371 44.1367 45.0169 44.1367 44.5802V42.9984Z" fill="#173559"/>
<path d="M39.6887 19.846H65.8548C67.8154 19.846 69.5015 21.2342 69.878 23.1583L71.9782 33.8927C72.1952 35.0016 71.3461 36.0329 70.2161 36.0329C69.99 36.0329 69.7659 35.9902 69.5556 35.907L67.778 35.2038C64.7886 34.0212 61.4925 33.8273 58.3851 34.645C55.237 35.4735 51.9166 35.453 48.7814 34.5821C45.9915 33.8072 43.0372 33.8543 40.2734 34.718L36.3048 35.9582C34.6768 35.8762 33.473 34.3647 33.7912 32.738L35.6655 23.1583C36.042 21.2342 37.7281 19.846 39.6887 19.846Z" fill="#173559" stroke="#173559" stroke-width="2.73298"/>
<rect x="61.1143" y="38.46" width="1.99801" height="7.99205" rx="0.999006" transform="rotate(45 61.1143 38.46)" fill="#173559"/>
<rect x="62.9985" y="44.1108" width="1.99801" height="7.99205" rx="0.999006" transform="rotate(45 62.9985 44.1108)" fill="#173559"/>
<path fill-rule="evenodd" clip-rule="evenodd" d="M19.7298 46.9429C18.4324 47.9892 15.7622 50.5589 15.4608 52.4674C15.1595 54.3759 15.3353 55.5226 15.4608 55.8574L14.0801 56.8619L14.7079 61.6331H17.4761C17.771 59.1204 19.9075 57.1709 22.4994 57.1709C25.0913 57.1709 27.2279 59.1204 27.5227 61.6331H29.9003H42.7662C43.0613 59.1207 45.1977 57.1714 47.7895 57.1714C50.3812 57.1714 52.5176 59.1207 52.8127 61.6331H53.38H59.4068L59.5323 57.8664C59.616 57.113 59.1557 55.3552 56.6445 54.3508C54.1334 53.3463 50.8508 52.2581 47.8374 51.8396C45.7866 50.1655 40.5551 46.6164 36.035 45.8128C32.0629 45.1067 26.8116 45.3831 21.0241 45.6877C20.2256 45.7297 19.417 45.7722 18.6002 45.8128L19.7298 46.9429Z" fill="#D7E7FF"/>
<path d="M15.4608 52.4674L16.8106 52.6805L15.4608 52.4674ZM19.7298 46.9429L20.5876 48.0065L21.7712 47.0521L20.6962 45.9768L19.7298 46.9429ZM15.4608 55.8574L16.2647 56.9625L17.1053 56.351L16.7403 55.3776L15.4608 55.8574ZM14.0801 56.8619L13.2762 55.7569L12.6193 56.2348L12.7253 57.0402L14.0801 56.8619ZM14.7079 61.6331L13.3531 61.8114L13.5094 62.9996H14.7079V61.6331ZM17.4761 61.6331V62.9996H18.6916L18.8333 61.7924L17.4761 61.6331ZM27.5227 61.6331L26.1655 61.7924L26.3072 62.9996H27.5227V61.6331ZM42.7662 61.6331V62.9996H43.9816L44.1234 61.7925L42.7662 61.6331ZM52.8127 61.6331L51.4555 61.7925L51.5973 62.9996H52.8127V61.6331ZM59.4068 61.6331V62.9996H60.7285L60.7725 61.6786L59.4068 61.6331ZM59.5323 57.8664L58.1742 57.7155L58.1684 57.768L58.1666 57.8208L59.5323 57.8664ZM56.6445 54.3508L57.152 53.082L56.6445 54.3508ZM47.8374 51.8396L46.9733 52.8982L47.27 53.1404L47.6494 53.1931L47.8374 51.8396ZM36.035 45.8128L35.7958 47.1582L36.035 45.8128ZM21.0241 45.6877L20.9522 44.3231L21.0241 45.6877ZM18.6002 45.8128L18.5323 44.448L15.4564 44.6009L17.6337 46.7789L18.6002 45.8128ZM16.8106 52.6805C16.8967 52.1352 17.4044 51.2683 18.2592 50.2712C19.0632 49.3334 19.9922 48.4867 20.5876 48.0065L18.872 45.8792C18.1699 46.4453 17.1152 47.4066 16.1843 48.4924C15.3043 49.5189 14.3263 50.8911 14.1111 52.2543L16.8106 52.6805ZM16.7403 55.3776C16.7518 55.4082 16.6858 55.2048 16.6662 54.6996C16.648 54.2283 16.6727 53.5538 16.8106 52.6805L14.1111 52.2543C13.7934 54.2662 13.9366 55.6845 14.1814 56.3373L16.7403 55.3776ZM14.884 57.9669L16.2647 56.9625L14.657 54.7524L13.2762 55.7569L14.884 57.9669ZM16.0627 61.4548L15.4349 56.6836L12.7253 57.0402L13.3531 61.8114L16.0627 61.4548ZM17.4761 60.2666H14.7079V62.9996H17.4761V60.2666ZM22.4994 55.8044C19.2063 55.8044 16.4936 58.2809 16.1189 61.4738L18.8333 61.7924C19.0483 59.9599 20.6087 58.5374 22.4994 58.5374V55.8044ZM28.8799 61.4738C28.5052 58.2809 25.7925 55.8044 22.4994 55.8044V58.5374C24.3901 58.5374 25.9505 59.9599 26.1655 61.7924L28.8799 61.4738ZM29.9003 60.2666H27.5227V62.9996H29.9003V60.2666ZM42.7662 60.2666H29.9003V62.9996H42.7662V60.2666ZM47.7895 55.8049C44.4966 55.8049 41.784 58.2811 41.4091 61.4737L44.1234 61.7925C44.3386 59.9602 45.8989 58.5379 47.7895 58.5379V55.8049ZM54.1699 61.4737C53.7949 58.2811 51.0823 55.8049 47.7895 55.8049V58.5379C49.68 58.5379 51.2403 59.9602 51.4555 61.7925L54.1699 61.4737ZM53.38 60.2666H52.8127V62.9996H53.38V60.2666ZM59.4068 60.2666H53.38V62.9996H59.4068V60.2666ZM58.1666 57.8208L58.041 61.5876L60.7725 61.6786L60.8981 57.9119L58.1666 57.8208ZM56.137 55.6195C57.154 56.0263 57.6584 56.5422 57.9079 56.9352C58.0367 57.138 58.107 57.3226 58.1428 57.4676C58.1607 57.5403 58.1694 57.6007 58.1729 57.646C58.1765 57.6926 58.1741 57.716 58.1742 57.7155L60.8905 58.0173C61.0485 56.5954 60.1777 54.2923 57.152 53.082L56.137 55.6195ZM47.6494 53.1931C50.5053 53.5897 53.6709 54.6331 56.137 55.6195L57.152 53.082C54.5958 52.0595 51.1963 50.9265 48.0254 50.4861L47.6494 53.1931ZM35.7958 47.1582C37.8366 47.521 40.1193 48.5255 42.1926 49.6909C44.2513 50.8483 46.007 52.1094 46.9733 52.8982L48.7016 50.781C47.6171 49.8957 45.7316 48.5452 43.5318 47.3086C41.3466 46.0801 38.7535 44.9082 36.2742 44.4674L35.7958 47.1582ZM21.0959 47.0523C26.944 46.7445 32.0135 46.4858 35.7958 47.1582L36.2742 44.4674C32.1123 43.7276 26.6792 44.0216 20.9522 44.3231L21.0959 47.0523ZM18.668 47.1776C19.4872 47.1369 20.2978 47.0943 21.0959 47.0523L20.9522 44.3231C20.1535 44.3651 19.3469 44.4076 18.5323 44.448L18.668 47.1776ZM20.6962 45.9768L19.5666 44.8467L17.6337 46.7789L18.7634 47.9089L20.6962 45.9768Z" fill="#173559"/>
<circle cx="22.5151" cy="62.2289" r="2.00552" fill="#D7E7FF" stroke="#173559" stroke-width="2.73298"/>
<circle cx="47.8007" cy="62.2304" r="2.00552" fill="#D7E7FF" stroke="#173559" stroke-width="2.73298"/>
</g>
<path d="M39.7246 25.2379C39.5452 25.1665 39.3597 25.1097 39.1701 25.0683C38.9799 25.0292 38.7859 25.0096 38.5914 25.0098C38.2535 25.0117 37.9193 25.0763 37.6075 25.1998C37.3007 25.3186 37.0203 25.4913 36.781 25.7087C36.5408 25.9303 36.3477 26.1935 36.2121 26.484C36.0685 26.7952 35.9963 27.1318 36.0001 27.4714C35.9967 27.8286 36.0701 28.1828 36.2157 28.5122C36.3528 28.8066 36.547 29.0739 36.7882 29.3003C37.0245 29.5213 37.304 29.6965 37.6111 29.816C37.9205 29.9374 38.2521 29.9996 38.5869 29.9992C38.756 29.9979 38.9246 29.9814 39.0905 29.95C39.2787 29.9146 39.4638 29.8655 39.6441 29.8033L39.7273 29.7762V28.5199C39.4421 28.779 39.0633 28.9252 38.6683 28.9287C38.4725 28.9301 38.2785 28.8932 38.0985 28.8202C37.9269 28.7505 37.7713 28.6496 37.6406 28.5233C37.5086 28.3958 37.4046 28.2447 37.3347 28.0788C37.26 27.8854 37.2227 27.6808 37.2247 27.4748C37.2229 27.286 37.2603 27.0986 37.3347 26.9234C37.4039 26.7588 37.5066 26.6086 37.637 26.4815C37.7681 26.356 37.924 26.2563 38.0958 26.188C38.2789 26.1148 38.4759 26.0779 38.6746 26.0794C38.8698 26.078 39.0634 26.1139 39.2438 26.1848C39.4242 26.2558 39.5877 26.3604 39.7246 26.4925V25.2379Z" fill="#FDCF33"/>
<path d="M50.1481 29.9097L48.5176 27.8688L48.6347 27.8425C48.9404 27.7879 49.2163 27.6336 49.4147 27.4065C49.5936 27.1936 49.6777 26.9094 49.6777 26.5582C49.6789 26.3565 49.6453 26.1559 49.5784 25.9644C49.5142 25.7982 49.4147 25.6463 49.2859 25.5183C49.1469 25.3836 48.9783 25.2796 48.7921 25.2137C48.5633 25.1335 48.3205 25.0949 48.0766 25.1001H46.1025V29.9114H47.2653V27.8086L48.6964 29.9097H50.1481ZM48.2421 27.1291C48.09 27.2411 47.8727 27.2988 47.5954 27.2988H47.2689V25.9627H47.5954C47.8727 25.9627 48.09 26.0196 48.2421 26.1324C48.3212 26.1912 48.3842 26.2673 48.4257 26.3541C48.4673 26.4409 48.4862 26.536 48.4809 26.6312C48.4861 26.7263 48.4671 26.8211 48.4255 26.9078C48.384 26.9944 48.321 27.0703 48.2421 27.1291Z" fill="#FDCF33"/>
<path d="M53.5765 25.8142L52.9549 26.1637C52.8786 26.0149 52.7646 25.8864 52.6231 25.7896C52.4951 25.7185 52.3482 25.6838 52.2 25.6895C52.0075 25.6827 51.8192 25.7431 51.6705 25.8592C51.6036 25.91 51.5499 25.9746 51.5135 26.0481C51.477 26.1216 51.4588 26.2021 51.4603 26.2833C51.4603 26.5186 51.6442 26.7074 52.0122 26.85L52.5184 27.0467C52.9299 27.2045 53.231 27.3971 53.4218 27.6244C53.6164 27.8637 53.7173 28.1596 53.7071 28.4616C53.7139 28.665 53.6759 28.8674 53.5957 29.0561C53.5154 29.2448 53.3947 29.4156 53.2411 29.5576C53.0881 29.7007 52.9063 29.8131 52.7066 29.8882C52.5068 29.9632 52.2932 29.9994 52.0783 29.9945C51.678 30.0081 51.2873 29.8754 50.9871 29.6238C50.7057 29.3761 50.5295 29.028 50.4585 28.5796L51.234 28.4175C51.2686 28.7003 51.33 28.8957 51.4182 29.0037C51.4964 29.1063 51.6005 29.1886 51.7211 29.243C51.8416 29.2974 51.9746 29.3222 52.1079 29.315C52.2182 29.3181 52.328 29.2995 52.4303 29.2604C52.5327 29.2212 52.6254 29.1624 52.7027 29.0877C52.781 29.0116 52.8423 28.9213 52.8829 28.8222C52.9235 28.723 52.9425 28.6171 52.9388 28.5108C52.9397 28.4245 52.9258 28.3385 52.8977 28.2564C52.8696 28.1758 52.8249 28.1014 52.7662 28.0375C52.701 27.9663 52.6254 27.9043 52.5417 27.8534C52.437 27.7901 52.3269 27.7354 52.2125 27.6897L51.7232 27.4972C51.0292 27.2178 50.6821 26.8106 50.6821 26.2757C50.6789 26.1032 50.7165 25.9323 50.792 25.7754C50.8675 25.6185 50.9791 25.4796 51.1186 25.3689C51.4192 25.1204 51.8077 24.9889 52.2062 25.0007C52.7912 25.003 53.248 25.2742 53.5765 25.8142Z" fill="#FDCF33"/>
<path d="M54.2428 27.4738C54.239 27.1472 54.3069 26.8235 54.4421 26.5231C54.5773 26.2227 54.7769 25.9523 55.0282 25.7289C55.2732 25.4936 55.5659 25.3077 55.8887 25.1824C56.2116 25.0572 56.5578 24.9952 56.9065 25.0003C57.253 24.9959 57.5968 25.0589 57.9166 25.1854C58.2364 25.3119 58.5255 25.4992 58.7661 25.7357C59.0164 25.9639 59.2146 26.2384 59.3485 26.5422C59.4823 26.846 59.549 27.1726 59.5442 27.5018C59.5503 27.8308 59.4838 28.1573 59.3492 28.4605C59.2146 28.7637 59.0148 29.037 58.7625 29.2628C58.5141 29.4981 58.2185 29.6836 57.893 29.8083C57.5676 29.933 57.219 29.9945 56.868 29.9889C56.2155 29.9897 55.5862 29.7595 55.1033 29.3434C54.5296 28.8689 54.2428 28.2457 54.2428 27.4738ZM55.0147 27.484C55.0067 27.728 55.0529 27.9708 55.1503 28.1967C55.2476 28.4227 55.3941 28.6267 55.58 28.7954C55.7493 28.9589 55.9513 29.0886 56.1742 29.177C56.397 29.2655 56.6363 29.3108 56.8779 29.3103C57.1282 29.3153 57.377 29.2713 57.6087 29.1813C57.8405 29.0913 58.0502 28.957 58.2249 28.7869C58.4042 28.6183 58.5455 28.417 58.6404 28.195C58.7353 27.9731 58.7817 27.7353 58.7768 27.4959C58.7832 27.2572 58.7385 27.0198 58.6453 26.798C58.5522 26.5763 58.4125 26.3747 58.2348 26.2057C58.0627 26.035 57.8549 25.9004 57.6248 25.8102C57.3947 25.7201 57.1473 25.6765 56.8985 25.6823C56.6488 25.6769 56.4007 25.7207 56.1698 25.8107C55.9389 25.9008 55.7302 26.0353 55.5568 26.2057C55.3792 26.3724 55.2396 26.5718 55.1463 26.7917C55.0531 27.0115 55.0083 27.2471 55.0147 27.484Z" fill="#FDCF33"/>
<path d="M69.0003 25.7805H66.9663V26.935H68.9413V27.6136H66.9663V29.2253H69.0003V29.9082H66.2007V25.0977H69.0003V25.7805Z" fill="#FDCF33"/>
<path d="M44.117 29.909H45.4318L43.5016 25.0977H42.227L40.2959 29.909H41.6116L42.8639 26.4201L44.117 29.909Z" fill="#FDCF33"/>
<path d="M64.6487 25.1035H63.8142L62.6952 28.9224L61.5772 25.1035H60.7418L59.8384 29.9098H60.5942L61.2078 26.1986L62.3446 29.9522H63.0459L64.1827 26.1986L64.7963 29.9098H65.553L64.6487 25.1035Z" fill="#FDCF33"/>
</svg>
