<svg width="24" height="24" viewBox="0 0 24 24" fill="none" xmlns="http://www.w3.org/2000/svg">
<path d="M18.3007 5.7083C17.9107 5.31841 17.2807 5.31841 16.8907 5.7083L12.0007 10.5869L7.1107 5.6983C6.7207 5.30841 6.0907 5.30841 5.7007 5.6983C5.3107 6.08819 5.3107 6.718 5.7007 7.10789L10.5907 11.9965L5.7007 16.8851C5.3107 17.275 5.3107 17.9048 5.7007 18.2947C6.0907 18.6845 6.7207 18.6845 7.1107 18.2947L12.0007 13.4061L16.8907 18.2947C17.2807 18.6845 17.9107 18.6845 18.3007 18.2947C18.6907 17.9048 18.6907 17.275 18.3007 16.8851L13.4107 11.9965L18.3007 7.10789C18.6807 6.728 18.6807 6.08819 18.3007 5.7083Z" fill="black"/>
</svg>
