<svg width="100" height="14" viewBox="0 0 100 14" fill="none" xmlns="http://www.w3.org/2000/svg">
<rect width="100" height="14" rx="3.5" fill="#0066CC"/>
<path d="M21.9827 7.72064C21.9295 8.45693 21.6569 9.03656 21.165 9.45953C20.6762 9.88251 20.0308 10.094 19.2287 10.094C18.3514 10.094 17.6606 9.79948 17.1561 9.21045C16.6548 8.61829 16.4042 7.8068 16.4042 6.776V6.35773C16.4042 5.69977 16.5201 5.12014 16.752 4.61884C16.9838 4.11753 17.3144 3.73372 17.7436 3.46741C18.176 3.19796 18.6773 3.06323 19.2475 3.06323C20.037 3.06323 20.6731 3.27472 21.1556 3.69769C21.6381 4.12067 21.9169 4.7144 21.9921 5.47888H20.5822C20.5477 5.03711 20.424 4.71753 20.2109 4.52014C20.001 4.31962 19.6799 4.21936 19.2475 4.21936C18.7775 4.21936 18.425 4.38855 18.1901 4.72693C17.9582 5.06217 17.8392 5.58384 17.8329 6.29193V6.8089C17.8329 7.54832 17.9441 8.08879 18.1666 8.4303C18.3922 8.77181 18.7462 8.94257 19.2287 8.94257C19.6642 8.94257 19.9885 8.84387 20.2015 8.64648C20.4177 8.44596 20.5415 8.13735 20.5728 7.72064H21.9827ZM25.766 10C25.7033 9.87781 25.6579 9.72585 25.6297 9.54413C25.3007 9.91071 24.873 10.094 24.3467 10.094C23.8485 10.094 23.4349 9.94987 23.106 9.66162C22.7801 9.37337 22.6172 9.00993 22.6172 8.57129C22.6172 8.03239 22.8161 7.61882 23.2141 7.33057C23.6151 7.04232 24.1932 6.89663 24.9482 6.89349H25.5733V6.60211C25.5733 6.36713 25.5122 6.17914 25.39 6.03815C25.271 5.89716 25.0814 5.82666 24.8214 5.82666C24.5926 5.82666 24.4125 5.88149 24.2809 5.99115C24.1524 6.10081 24.0882 6.2512 24.0882 6.44232H22.73C22.73 6.14781 22.8208 5.87522 23.0026 5.62457C23.1843 5.37392 23.4412 5.1781 23.7733 5.03711C24.1054 4.89299 24.4783 4.82092 24.8918 4.82092C25.5185 4.82092 26.0151 4.97915 26.3817 5.29559C26.7514 5.60891 26.9362 6.05068 26.9362 6.62091V8.82507C26.9394 9.30758 27.0067 9.67259 27.1383 9.9201V10H25.766ZM24.6428 9.05536C24.8433 9.05536 25.0281 9.01149 25.1973 8.92377C25.3665 8.83291 25.4918 8.71228 25.5733 8.56189V7.68774H25.0657C24.3858 7.68774 24.024 7.92273 23.9801 8.3927L23.9754 8.4726C23.9754 8.64178 24.0349 8.78121 24.154 8.89087C24.2731 9.00053 24.436 9.05536 24.6428 9.05536ZM30.837 6.18854C30.6521 6.16347 30.4892 6.15094 30.3482 6.15094C29.8344 6.15094 29.4976 6.32483 29.3378 6.67261V10H27.9796V4.91492H29.2626L29.3002 5.52118C29.5728 5.05434 29.9503 4.82092 30.4328 4.82092C30.5832 4.82092 30.7242 4.84129 30.8558 4.88202L30.837 6.18854ZM34.249 8.59479C34.249 8.42873 34.1659 8.29871 33.9999 8.20471C33.837 8.10758 33.5738 8.02142 33.2103 7.94623C32.0009 7.69244 31.3962 7.17861 31.3962 6.40472C31.3962 5.95355 31.5827 5.57758 31.9555 5.27679C32.3315 4.97288 32.8218 4.82092 33.4265 4.82092C34.0719 4.82092 34.5873 4.97288 34.9727 5.27679C35.3612 5.58071 35.5555 5.97548 35.5555 6.46112H34.1973C34.1973 6.26687 34.1346 6.10708 34.0093 5.98175C33.884 5.85329 33.6881 5.78906 33.4218 5.78906C33.1931 5.78906 33.0161 5.84076 32.8907 5.94415C32.7654 6.04755 32.7028 6.17914 32.7028 6.33893C32.7028 6.48932 32.7733 6.61151 32.9142 6.70551C33.0584 6.79637 33.2996 6.87626 33.638 6.94519C33.9764 7.01099 34.2615 7.08618 34.4933 7.17078C35.2108 7.43396 35.5696 7.88983 35.5696 8.53839C35.5696 9.0021 35.3706 9.37807 34.9727 9.66632C34.5748 9.95144 34.061 10.094 33.4312 10.094C33.0051 10.094 32.626 10.0188 32.2939 9.86841C31.9649 9.71488 31.7064 9.50653 31.5184 9.24335C31.3304 8.97703 31.2365 8.69035 31.2365 8.3833H32.5242C32.5367 8.62455 32.626 8.80941 32.7921 8.93787C32.9581 9.06632 33.1806 9.13055 33.4594 9.13055C33.7195 9.13055 33.9153 9.08199 34.0469 8.98486C34.1816 8.8846 34.249 8.75458 34.249 8.59479ZM36.2369 7.41046C36.2369 6.90603 36.3341 6.45642 36.5283 6.06165C36.7226 5.66687 37.0014 5.36139 37.3649 5.1452C37.7314 4.92902 38.156 4.82092 38.6385 4.82092C39.3246 4.82092 39.8839 5.03084 40.3163 5.45068C40.7518 5.87052 40.9946 6.44076 41.0447 7.16138L41.0541 7.50916C41.0541 8.28931 40.8364 8.91593 40.4009 9.38904C39.9654 9.85901 39.381 10.094 38.6479 10.094C37.9147 10.094 37.3288 9.85901 36.8902 9.38904C36.4547 8.91907 36.2369 8.27991 36.2369 7.47156V7.41046ZM37.5952 7.50916C37.5952 7.99166 37.686 8.36137 37.8677 8.61829C38.0495 8.87207 38.3095 8.99896 38.6479 8.99896C38.9769 8.99896 39.2338 8.87364 39.4186 8.62299C39.6035 8.3692 39.6959 7.96503 39.6959 7.41046C39.6959 6.93736 39.6035 6.57078 39.4186 6.31073C39.2338 6.05068 38.9737 5.92065 38.6385 5.92065C38.3064 5.92065 38.0495 6.05068 37.8677 6.31073C37.686 6.56765 37.5952 6.96712 37.5952 7.50916ZM43.1643 4.91492L43.2066 5.48358C43.5669 5.04181 44.0541 4.82092 44.6682 4.82092C45.323 4.82092 45.7726 5.07941 46.017 5.59637C46.3742 5.07941 46.8833 4.82092 47.5444 4.82092C48.0959 4.82092 48.5063 4.98228 48.7758 5.30499C49.0452 5.62457 49.1799 6.10708 49.1799 6.7525V10H47.817V6.7572C47.817 6.46895 47.7606 6.25903 47.6478 6.12744C47.535 5.99272 47.3361 5.92535 47.051 5.92535C46.6437 5.92535 46.3617 6.11961 46.205 6.50812L46.2097 10H44.8515V6.7619C44.8515 6.46739 44.7935 6.25433 44.6776 6.12274C44.5617 5.99115 44.3643 5.92535 44.0854 5.92535C43.7001 5.92535 43.4212 6.08514 43.2489 6.40472V10H41.8907V4.91492H43.1643ZM52.5684 10.094C51.8227 10.094 51.2149 9.86528 50.7449 9.40784C50.2781 8.9504 50.0447 8.341 50.0447 7.57965V7.44806C50.0447 6.93736 50.1434 6.48149 50.3408 6.08044C50.5381 5.67627 50.817 5.36609 51.1773 5.1499C51.5408 4.93058 51.9543 4.82092 52.418 4.82092C53.1136 4.82092 53.6603 5.04024 54.0582 5.47888C54.4593 5.91752 54.6598 6.53945 54.6598 7.34467V7.89923H51.4217C51.4656 8.23134 51.5971 8.49766 51.8165 8.69818C52.0389 8.8987 52.3193 8.99896 52.6577 8.99896C53.1809 8.99896 53.5898 8.80941 53.8843 8.4303L54.5517 9.17755C54.348 9.4658 54.0723 9.69139 53.7245 9.85431C53.3768 10.0141 52.9914 10.094 52.5684 10.094ZM52.4133 5.92065C52.1439 5.92065 51.9246 6.01152 51.7554 6.19324C51.5893 6.37496 51.4828 6.63501 51.4358 6.97339H53.3251V6.8653C53.3188 6.56451 53.2373 6.33266 53.0807 6.16974C52.924 6.00368 52.7016 5.92065 52.4133 5.92065ZM63.2932 7.72064C63.2399 8.45693 62.9673 9.03656 62.4754 9.45953C61.9866 9.88251 61.3412 10.094 60.5391 10.094C59.6618 10.094 58.971 9.79948 58.4666 9.21045C57.9653 8.61829 57.7146 7.8068 57.7146 6.776V6.35773C57.7146 5.69977 57.8305 5.12014 58.0624 4.61884C58.2942 4.11753 58.6248 3.73372 59.054 3.46741C59.4864 3.19796 59.9877 3.06323 60.5579 3.06323C61.3475 3.06323 61.9835 3.27472 62.466 3.69769C62.9485 4.12067 63.2274 4.7144 63.3026 5.47888H61.8926C61.8582 5.03711 61.7344 4.71753 61.5214 4.52014C61.3114 4.31962 60.9903 4.21936 60.5579 4.21936C60.088 4.21936 59.7355 4.38855 59.5005 4.72693C59.2686 5.06217 59.1496 5.58384 59.1433 6.29193V6.8089C59.1433 7.54832 59.2545 8.08879 59.477 8.4303C59.7026 8.77181 60.0566 8.94257 60.5391 8.94257C60.9746 8.94257 61.2989 8.84387 61.512 8.64648C61.7281 8.44596 61.8519 8.13735 61.8832 7.72064H63.2932ZM66.4702 10.094C65.7245 10.094 65.1166 9.86528 64.6467 9.40784C64.1798 8.9504 63.9464 8.341 63.9464 7.57965V7.44806C63.9464 6.93736 64.0451 6.48149 64.2425 6.08044C64.4399 5.67627 64.7187 5.36609 65.079 5.1499C65.4425 4.93058 65.8561 4.82092 66.3198 4.82092C67.0153 4.82092 67.5621 5.04024 67.96 5.47888C68.361 5.91752 68.5615 6.53945 68.5615 7.34467V7.89923H65.3234C65.3673 8.23134 65.4989 8.49766 65.7182 8.69818C65.9407 8.8987 66.2211 8.99896 66.5594 8.99896C67.0827 8.99896 67.4916 8.80941 67.7861 8.4303L68.4534 9.17755C68.2498 9.4658 67.9741 9.69139 67.6263 9.85431C67.2785 10.0141 66.8931 10.094 66.4702 10.094ZM66.3151 5.92065C66.0456 5.92065 65.8263 6.01152 65.6571 6.19324C65.491 6.37496 65.3845 6.63501 65.3375 6.97339H67.2268V6.8653C67.2205 6.56451 67.1391 6.33266 66.9824 6.16974C66.8258 6.00368 66.6033 5.92065 66.3151 5.92065ZM72.1944 6.18854C72.0095 6.16347 71.8466 6.15094 71.7056 6.15094C71.1918 6.15094 70.855 6.32483 70.6952 6.67261V10H69.337V4.91492H70.62L70.6576 5.52118C70.9302 5.05434 71.3077 4.82092 71.7902 4.82092C71.9406 4.82092 72.0816 4.84129 72.2132 4.88202L72.1944 6.18854ZM74.7134 3.66479V4.91492H75.5829V5.91125H74.7134V8.4491C74.7134 8.63708 74.7495 8.77181 74.8215 8.85327C74.8936 8.93473 75.0315 8.97546 75.2351 8.97546C75.3855 8.97546 75.5187 8.9645 75.6346 8.94257V9.9718C75.3683 10.0533 75.0941 10.094 74.8121 10.094C73.8597 10.094 73.374 9.61306 73.3552 8.65118V5.91125H72.6127V4.91492H73.3552V3.66479H74.7134ZM77.7729 10H76.41V4.91492H77.7729V10ZM76.3301 3.599C76.3301 3.39535 76.3975 3.22772 76.5322 3.09613C76.6701 2.96454 76.8565 2.89874 77.0915 2.89874C77.3233 2.89874 77.5082 2.96454 77.6461 3.09613C77.7839 3.22772 77.8528 3.39535 77.8528 3.599C77.8528 3.80579 77.7823 3.97498 77.6414 4.10657C77.5035 4.23816 77.3202 4.30396 77.0915 4.30396C76.8628 4.30396 76.6779 4.23816 76.5369 4.10657C76.3991 3.97498 76.3301 3.80579 76.3301 3.599ZM79.2675 10V5.91125H78.5108V4.91492H79.2675V4.48254C79.2675 3.91231 79.4304 3.47054 79.7562 3.15723C80.0852 2.84078 80.5442 2.68256 81.1332 2.68256C81.3212 2.68256 81.5515 2.71389 81.8241 2.77655L81.81 3.82928C81.6972 3.80109 81.5593 3.78699 81.3964 3.78699C80.8857 3.78699 80.6304 4.02667 80.6304 4.50604V4.91492H81.6408V5.91125H80.6304V10H79.2675ZM83.7792 10H82.4163V4.91492H83.7792V10ZM82.3364 3.599C82.3364 3.39535 82.4037 3.22772 82.5385 3.09613C82.6763 2.96454 82.8627 2.89874 83.0977 2.89874C83.3296 2.89874 83.5144 2.96454 83.6523 3.09613C83.7901 3.22772 83.8591 3.39535 83.8591 3.599C83.8591 3.80579 83.7886 3.97498 83.6476 4.10657C83.5097 4.23816 83.3264 4.30396 83.0977 4.30396C82.869 4.30396 82.6841 4.23816 82.5432 4.10657C82.4053 3.97498 82.3364 3.80579 82.3364 3.599ZM87.2429 10.094C86.4972 10.094 85.8893 9.86528 85.4194 9.40784C84.9525 8.9504 84.7191 8.341 84.7191 7.57965V7.44806C84.7191 6.93736 84.8178 6.48149 85.0152 6.08044C85.2126 5.67627 85.4914 5.36609 85.8517 5.1499C86.2152 4.93058 86.6288 4.82092 87.0925 4.82092C87.788 4.82092 88.3348 5.04024 88.7327 5.47888C89.1337 5.91752 89.3342 6.53945 89.3342 7.34467V7.89923H86.0961C86.14 8.23134 86.2716 8.49766 86.4909 8.69818C86.7134 8.8987 86.9938 8.99896 87.3322 8.99896C87.8554 8.99896 88.2643 8.80941 88.5588 8.4303L89.2261 9.17755C89.0225 9.4658 88.7468 9.69139 88.399 9.85431C88.0512 10.0141 87.6658 10.094 87.2429 10.094ZM87.0878 5.92065C86.8183 5.92065 86.599 6.01152 86.4298 6.19324C86.2638 6.37496 86.1572 6.63501 86.1102 6.97339H87.9995V6.8653C87.9932 6.56451 87.9118 6.33266 87.7551 6.16974C87.5985 6.00368 87.376 5.92065 87.0878 5.92065ZM89.8982 7.41986C89.8982 6.62718 90.0752 5.99585 90.4293 5.52588C90.7864 5.05591 91.2736 4.82092 91.8909 4.82092C92.3859 4.82092 92.7948 5.00578 93.1175 5.37549V2.78125H94.4804V10H93.2538L93.188 9.45953C92.8496 9.88251 92.4141 10.094 91.8815 10.094C91.283 10.094 90.8021 9.85901 90.4387 9.38904C90.0783 8.91593 89.8982 8.25954 89.8982 7.41986ZM91.2564 7.51855C91.2564 7.99479 91.3394 8.3598 91.5055 8.61359C91.6715 8.86737 91.9128 8.99426 92.2292 8.99426C92.6491 8.99426 92.9452 8.81724 93.1175 8.4632V6.45642C92.9483 6.10238 92.6554 5.92535 92.2386 5.92535C91.5838 5.92535 91.2564 6.45642 91.2564 7.51855Z" fill="#ECF3F9"/>
<path fill-rule="evenodd" clip-rule="evenodd" d="M9.00922 2.54346C10.044 3.36261 11.3463 3.85291 12.7636 3.85589C13.7076 6.97478 12.0832 10.3274 9.01045 11.4561C5.93846 10.3274 4.31426 6.97478 5.25801 3.85589C6.67389 3.85292 7.97394 3.36088 9.00922 2.54346ZM8.93397 6.98091H5.79496C6.19029 8.59593 7.32052 9.98908 8.93351 10.6463L8.93397 10.6461V6.98091ZM8.93397 6.98091H12.0726C12.2698 6.17535 12.2843 5.31462 12.0845 4.46248C10.9461 4.39438 9.86918 4.0156 8.93397 3.35413V6.98091Z" fill="#FDCF33"/>
<path d="M8.92459 2.95068L8.59515 3.74507L6.96745 4.2682L5.59216 6.22511L5.92152 8.22077L7.08389 9.9258L8.82767 11.2046L11.5208 8.47265L12.4509 6.32199L12.2184 4.2682L10.8815 4.0357L8.92459 2.95068Z" fill="#FDCF33"/>
<path d="M7.56385 8.43946C7.54031 8.57141 7.68295 8.66993 7.79788 8.60097C8.19283 8.36401 8.86097 7.96497 9.00145 7.89265C9.15683 7.97264 9.80355 8.37365 10.1885 8.61388C10.3023 8.6849 10.447 8.58904 10.4256 8.45661C10.353 8.00755 10.231 7.25429 10.2023 7.09073C10.3565 6.94362 10.8226 6.53757 11.1243 6.27614C11.2273 6.18697 11.1751 6.01752 11.0398 6.00208C10.6346 5.95584 9.99987 5.88237 9.78191 5.85141C9.70283 5.69439 9.34186 4.9969 9.13968 4.6066C9.08153 4.49434 8.92137 4.49434 8.86322 4.6066C8.66104 4.9969 8.30007 5.69439 8.22099 5.85141C8.05609 5.87485 7.38467 5.95301 6.96202 6.00176C6.82698 6.01734 6.77494 6.18601 6.87764 6.27506C7.19289 6.5484 7.68731 6.97878 7.80389 7.08992C7.77148 7.27505 7.64186 8.00218 7.56385 8.43946Z" fill="#0066CC"/>
</svg>
